ffmpeg started on 2026-01-20 at 19:08:20
Report written to "D:\Convert\FFMetrics\reports\ssim_report-6.txt"
Log level: 32
Command line:
ffmpeg -hide_banner -nostdin -r 24000/1001 -i "F:\\Convert\\files\\[DC] Make Heroine ga Oosugiru - 07_Telegram_HEVC(222).mkv" -r 24000/1001 -i "F:\\Convert\\files\\[DC] Make Heroine ga Oosugiru - 07_Telegram.mp4" -lavfi "[0:v]settb=AVTB,setpts=PTS-STARTPTS,format=pix_fmts=yuv420p10le,fps=24000/1001,scale=1920:1080:flags=lanczos:param0=3:out_range=limited:out_color_matrix=bt709:out_chroma_loc=left,setsar=1/1,setdar=(1920/1080)*(1/1),colorspace=format=yuv420p10:range=tv:primaries=bt709:trc=bt709:space=bt709:fast=0[main];[1:v]settb=AVTB,setpts=PTS-STARTPTS,format=pix_fmts=yuv420p,fps=24000/1001,scale=1920:1080:flags=lanczos:param0=3:out_range=limited:out_color_matrix=bt709:out_chroma_loc=left,setsar=1.000,setdar=1.778,colorspace=format=yuv420p:range=tv:primaries=bt709:trc=bt709:space=bt709:fast=0[ref];[main][ref]ssim=eof_action=endall:stats_file='D\\:/Convert/FFMetrics/logs/ssim_logfile-6.txt'" -f null -
Input #0, matroska,webm, from 'F:\Convert\files\[DC] Make Heroine ga Oosugiru - 07_Telegram_HEVC(222).mkv':
  Metadata:
    COMPATIBLE_BRANDS: isomiso2avc1mp41
    MAJOR_BRAND     : isom
    MINOR_VERSION   : 512
    ENCODER         : Lavf61.7.100
  Duration: 00:24:06.79, start: -0.021000, bitrate: 907 kb/s
  Stream #0:0: Video: hevc (Main 10), yuv420p10le(tv, bt709, progressive), 1920x1080 [SAR 1:1 DAR 16:9], 23.98 fps, 23.98 tbr, 1k tbn (default)
      Metadata:
        HANDLER_NAME    : VideoHandler
        VENDOR_ID       : [0][0][0][0]
        ENCODER         : Lavc61.19.100 libx265
        BPS             : 710117
        DURATION        : 00:24:06.569708333
        NUMBER_OF_FRAMES: 34683
        NUMBER_OF_BYTES : 128404311
        _STATISTICS_WRITING_APP: mkvpropedit v94.0 ('Initiate') 64-bit
        _STATISTICS_WRITING_DATE_UTC: 2026-01-20 15:25:31
        _STATISTICS_TAGS: BPS DURATION NUMBER_OF_FRAMES NUMBER_OF_BYTES
  Stream #0:1: Audio: aac (LC), 48000 Hz, stereo, fltp (default)
      Metadata:
        HANDLER_NAME    : SoundHandler
        VENDOR_ID       : [0][0][0][0]
        ENCODER         : Lavc61.19.100 aac
        BPS             : 193194
        DURATION        : 00:24:06.784000000
        NUMBER_OF_FRAMES: 67819
        NUMBER_OF_BYTES : 34938755
        _STATISTICS_WRITING_APP: mkvpropedit v94.0 ('Initiate') 64-bit
        _STATISTICS_WRITING_DATE_UTC: 2026-01-20 15:25:31
        _STATISTICS_TAGS: BPS DURATION NUMBER_OF_FRAMES NUMBER_OF_BYTES
Input #1, mov,mp4,m4a,3gp,3g2,mj2, from 'F:\Convert\files\[DC] Make Heroine ga Oosugiru - 07_Telegram.mp4':
  Metadata:
    major_brand     : isom
    minor_version   : 512
    compatible_brands: isomiso2avc1mp41
    encoder         : Lavf60.16.100
  Duration: 00:24:06.74, start: 0.000000, bitrate: 3764 kb/s
  Stream #1:0[0x1](und): Video: h264 (High) (avc1 / 0x31637661), yuv420p(tv, bt709, progressive), 1920x1080 [SAR 1:1 DAR 16:9], 3616 kb/s, 23.98 fps, 23.98 tbr, 24k tbn (default)
      Metadata:
        handler_name    : VideoHandler
        vendor_id       : [0][0][0][0]
        encoder         : Lavc60.31.102 h264_qsv
  Stream #1:1[0x2](und): Audio: aac (HE-AACv2) (mp4a / 0x6134706D), 48000 Hz, stereo, fltp, 144 kb/s (default)
      Metadata:
        handler_name    : SoundHandler
        vendor_id       : [0][0][0][0]
Stream mapping:
  Stream #0:0 (hevc) -> settb:default
  Stream #1:0 (h264) -> settb:default
  ssim:default -> Stream #0:0 (wrapped_avframe)
  Stream #0:1 -> #0:1 (aac (native) -> pcm_s16le (native))
Output #0, null, to 'pipe:':
  Metadata:
    COMPATIBLE_BRANDS: isomiso2avc1mp41
    MAJOR_BRAND     : isom
    MINOR_VERSION   : 512
    encoder         : Lavf61.7.100
  Stream #0:0: Video: wrapped_avframe, yuv420p10le(tv, bt709, progressive), 1920x1080 [SAR 1:1 DAR 16:9], q=2-31, 200 kb/s, 23.98 fps, 23.98 tbn
      Metadata:
        encoder         : Lavc61.19.100 wrapped_avframe
  Stream #0:1: Audio: pcm_s16le, 48000 Hz, stereo, s16, 1536 kb/s (default)
      Metadata:
        HANDLER_NAME    : SoundHandler
        VENDOR_ID       : [0][0][0][0]
        _STATISTICS_TAGS: BPS DURATION NUMBER_OF_FRAMES NUMBER_OF_BYTES
        BPS             : 193194
        DURATION        : 00:24:06.784000000
        NUMBER_OF_FRAMES: 67819
        NUMBER_OF_BYTES : 34938755
        _STATISTICS_WRITING_APP: mkvpropedit v94.0 ('Initiate') 64-bit
        _STATISTICS_WRITING_DATE_UTC: 2026-01-20 15:25:31
        encoder         : Lavc61.19.100 pcm_s16le
frame=  138 fps=0.0 q=-0.0 size=N/A time=00:00:05.75 bitrate=N/A speed=10.9x    frame=  320 fps=309 q=-0.0 size=N/A time=00:00:13.34 bitrate=N/A speed=12.9x    frame=  510 fps=327 q=-0.0 size=N/A time=00:00:21.27 bitrate=N/A speed=13.6x    frame=  703 fps=336 q=-0.0 size=N/A time=00:00:29.32 bitrate=N/A speed=  14x    frame=  882 fps=339 q=-0.0 size=N/A time=00:00:36.78 bitrate=N/A speed=14.1x    frame= 1021 fps=328 q=-0.0 size=N/A time=00:00:42.58 bitrate=N/A speed=13.7x    frame= 1190 fps=327 q=-0.0 size=N/A time=00:00:49.63 bitrate=N/A speed=13.6x    frame= 1352 fps=326 q=-0.0 size=N/A time=00:00:56.38 bitrate=N/A speed=13.6x    frame= 1509 fps=324 q=-0.0 size=N/A time=00:01:02.93 bitrate=N/A speed=13.5x    frame= 1658 fps=320 q=-0.0 size=N/A time=00:01:09.15 bitrate=N/A speed=13.4x    frame= 1826 fps=320 q=-0.0 size=N/A time=00:01:16.15 bitrate=N/A speed=13.4x    frame= 1990 fps=319 q=-0.0 size=N/A time=00:01:22.99 bitrate=N/A speed=13.3x    frame= 2106 fps=312 q=-0.0 size=N/A time=00:01:27.83 bitrate=N/A speed=  13x    frame= 2266 fps=313 q=-0.0 size=N/A time=00:01:34.51 bitrate=N/A speed=  13x    frame= 2414 fps=310 q=-0.0 size=N/A time=00:01:40.68 bitrate=N/A speed=  13x    frame= 2549 fps=308 q=-0.0 size=N/A time=00:01:46.31 bitrate=N/A speed=12.8x    frame= 2712 fps=308 q=-0.0 size=N/A time=00:01:53.11 bitrate=N/A speed=12.9x    frame= 2898 fps=311 q=-0.0 size=N/A time=00:02:00.87 bitrate=N/A speed=  13x    frame= 3075 fps=313 q=-0.0 size=N/A time=00:02:08.25 bitrate=N/A speed=  13x    frame= 3259 fps=315 q=-0.0 size=N/A time=00:02:15.92 bitrate=N/A speed=13.1x    frame= 3451 fps=317 q=-0.0 size=N/A time=00:02:23.93 bitrate=N/A speed=13.2x    frame= 3635 fps=319 q=-0.0 size=N/A time=00:02:31.60 bitrate=N/A speed=13.3x    frame= 3817 fps=321 q=-0.0 size=N/A time=00:02:39.20 bitrate=N/A speed=13.4x    frame= 4000 fps=322 q=-0.0 size=N/A time=00:02:46.83 bitrate=N/A speed=13.4x    frame= 4191 fps=324 q=-0.0 size=N/A time=00:02:54.79 bitrate=N/A speed=13.5x    frame= 4373 fps=325 q=-0.0 size=N/A time=00:03:02.39 bitrate=N/A speed=13.6x    frame= 4552 fps=326 q=-0.0 size=N/A time=00:03:09.85 bitrate=N/A speed=13.6x    frame= 4734 fps=327 q=-0.0 size=N/A time=00:03:17.44 bitrate=N/A speed=13.6x    frame= 4912 fps=328 q=-0.0 size=N/A time=00:03:24.87 bitrate=N/A speed=13.7x    frame= 5091 fps=328 q=-0.0 size=N/A time=00:03:32.33 bitrate=N/A speed=13.7x    frame= 5261 fps=328 q=-0.0 size=N/A time=00:03:39.42 bitrate=N/A speed=13.7x    frame= 5443 fps=329 q=-0.0 size=N/A time=00:03:47.01 bitrate=N/A speed=13.7x    frame= 5632 fps=330 q=-0.0 size=N/A time=00:03:54.90 bitrate=N/A speed=13.8x    frame= 5806 fps=330 q=-0.0 size=N/A time=00:04:02.15 bitrate=N/A speed=13.8x    frame= 5993 fps=331 q=-0.0 size=N/A time=00:04:09.95 bitrate=N/A speed=13.8x    frame= 6182 fps=332 q=-0.0 size=N/A time=00:04:17.84 bitrate=N/A speed=13.9x    frame= 6361 fps=333 q=-0.0 size=N/A time=00:04:25.30 bitrate=N/A speed=13.9x    frame= 6540 fps=333 q=-0.0 size=N/A time=00:04:32.77 bitrate=N/A speed=13.9x    frame= 6718 fps=334 q=-0.0 size=N/A time=00:04:40.19 bitrate=N/A speed=13.9x    frame= 6906 fps=334 q=-0.0 size=N/A time=00:04:48.03 bitrate=N/A speed=13.9x    frame= 7087 fps=335 q=-0.0 size=N/A time=00:04:55.58 bitrate=N/A speed=  14x    frame= 7273 fps=335 q=-0.0 size=N/A time=00:05:03.34 bitrate=N/A speed=  14x    frame= 7461 fps=336 q=-0.0 size=N/A time=00:05:11.18 bitrate=N/A speed=  14x    frame= 7635 fps=336 q=-0.0 size=N/A time=00:05:18.44 bitrate=N/A speed=  14x    frame= 7817 fps=336 q=-0.0 size=N/A time=00:05:26.03 bitrate=N/A speed=  14x    frame= 8004 fps=337 q=-0.0 size=N/A time=00:05:33.83 bitrate=N/A speed=14.1x    frame= 8185 fps=337 q=-0.0 size=N/A time=00:05:41.38 bitrate=N/A speed=14.1x    frame= 8375 fps=338 q=-0.0 size=N/A time=00:05:49.30 bitrate=N/A speed=14.1x    frame= 8548 fps=338 q=-0.0 size=N/A time=00:05:56.52 bitrate=N/A speed=14.1x    frame= 8740 fps=339 q=-0.0 size=N/A time=00:06:04.53 bitrate=N/A speed=14.1x    frame= 8922 fps=339 q=-0.0 size=N/A time=00:06:12.12 bitrate=N/A speed=14.1x    frame= 9102 fps=339 q=-0.0 size=N/A time=00:06:19.62 bitrate=N/A speed=14.1x    frame= 9288 fps=339 q=-0.0 size=N/A time=00:06:27.38 bitrate=N/A speed=14.2x    frame= 9470 fps=340 q=-0.0 size=N/A time=00:06:34.97 bitrate=N/A speed=14.2x    frame= 9655 fps=340 q=-0.0 size=N/A time=00:06:42.69 bitrate=N/A speed=14.2x    frame= 9839 fps=340 q=-0.0 size=N/A time=00:06:50.36 bitrate=N/A speed=14.2x    frame=10023 fps=341 q=-0.0 size=N/A time=00:06:58.04 bitrate=N/A speed=14.2x    frame=10203 fps=341 q=-0.0 size=N/A time=00:07:05.55 bitrate=N/A speed=14.2x    frame=10393 fps=341 q=-0.0 size=N/A time=00:07:13.47 bitrate=N/A speed=14.2x    frame=10571 fps=341 q=-0.0 size=N/A time=00:07:20.89 bitrate=N/A speed=14.2x    frame=10753 fps=341 q=-0.0 size=N/A time=00:07:28.48 bitrate=N/A speed=14.2x    frame=10934 fps=342 q=-0.0 size=N/A time=00:07:36.03 bitrate=N/A speed=14.3x    frame=11124 fps=342 q=-0.0 size=N/A time=00:07:43.96 bitrate=N/A speed=14.3x    frame=11297 fps=342 q=-0.0 size=N/A time=00:07:51.17 bitrate=N/A speed=14.3x    frame=11477 fps=342 q=-0.0 size=N/A time=00:07:58.68 bitrate=N/A speed=14.3x    frame=11663 fps=342 q=-0.0 size=N/A time=00:08:06.44 bitrate=N/A speed=14.3x    frame=11850 fps=343 q=-0.0 size=N/A time=00:08:14.24 bitrate=N/A speed=14.3x    frame=12036 fps=343 q=-0.0 size=N/A time=00:08:22.00 bitrate=N/A speed=14.3x    frame=12216 fps=343 q=-0.0 size=N/A time=00:08:29.50 bitrate=N/A speed=14.3x    frame=12405 fps=343 q=-0.0 size=N/A time=00:08:37.39 bitrate=N/A speed=14.3x    frame=12589 fps=344 q=-0.0 size=N/A time=00:08:45.06 bitrate=N/A speed=14.3x    frame=12775 fps=344 q=-0.0 size=N/A time=00:08:52.82 bitrate=N/A speed=14.3x    frame=12958 fps=344 q=-0.0 size=N/A time=00:09:00.45 bitrate=N/A speed=14.3x    frame=13141 fps=344 q=-0.0 size=N/A time=00:09:08.08 bitrate=N/A speed=14.3x    frame=13318 fps=344 q=-0.0 size=N/A time=00:09:15.47 bitrate=N/A speed=14.4x    frame=13503 fps=344 q=-0.0 size=N/A time=00:09:23.18 bitrate=N/A speed=14.4x    frame=13687 fps=344 q=-0.0 size=N/A time=00:09:30.86 bitrate=N/A speed=14.4x    frame=13871 fps=345 q=-0.0 size=N/A time=00:09:38.53 bitrate=N/A speed=14.4x    frame=14056 fps=345 q=-0.0 size=N/A time=00:09:46.25 bitrate=N/A speed=14.4x    frame=14228 fps=345 q=-0.0 size=N/A time=00:09:53.42 bitrate=N/A speed=14.4x    frame=14406 fps=345 q=-0.0 size=N/A time=00:10:00.85 bitrate=N/A speed=14.4x    frame=14593 fps=345 q=-0.0 size=N/A time=00:10:08.64 bitrate=N/A speed=14.4x    frame=14762 fps=345 q=-0.0 size=N/A time=00:10:15.69 bitrate=N/A speed=14.4x    frame=14947 fps=345 q=-0.0 size=N/A time=00:10:23.41 bitrate=N/A speed=14.4x    frame=15124 fps=345 q=-0.0 size=N/A time=00:10:30.79 bitrate=N/A speed=14.4x    frame=15297 fps=344 q=-0.0 size=N/A time=00:10:38.01 bitrate=N/A speed=14.4x    frame=15476 fps=344 q=-0.0 size=N/A time=00:10:45.47 bitrate=N/A speed=14.4x    frame=15668 fps=345 q=-0.0 size=N/A time=00:10:53.48 bitrate=N/A speed=14.4x    frame=15856 fps=345 q=-0.0 size=N/A time=00:11:01.32 bitrate=N/A speed=14.4x    frame=16038 fps=345 q=-0.0 size=N/A time=00:11:08.91 bitrate=N/A speed=14.4x    frame=16225 fps=345 q=-0.0 size=N/A time=00:11:16.71 bitrate=N/A speed=14.4x    frame=16416 fps=345 q=-0.0 size=N/A time=00:11:24.68 bitrate=N/A speed=14.4x    frame=16600 fps=346 q=-0.0 size=N/A time=00:11:32.35 bitrate=N/A speed=14.4x    frame=16783 fps=346 q=-0.0 size=N/A time=00:11:39.99 bitrate=N/A speed=14.4x    frame=16971 fps=346 q=-0.0 size=N/A time=00:11:47.83 bitrate=N/A speed=14.4x    frame=17163 fps=346 q=-0.0 size=N/A time=00:11:55.84 bitrate=N/A speed=14.4x    frame=17350 fps=346 q=-0.0 size=N/A time=00:12:03.63 bitrate=N/A speed=14.4x    frame=17531 fps=346 q=-0.0 size=N/A time=00:12:11.18 bitrate=N/A speed=14.4x    frame=17715 fps=346 q=-0.0 size=N/A time=00:12:18.86 bitrate=N/A speed=14.4x    frame=17892 fps=346 q=-0.0 size=N/A time=00:12:26.24 bitrate=N/A speed=14.4x    frame=18079 fps=347 q=-0.0 size=N/A time=00:12:34.04 bitrate=N/A speed=14.5x    frame=18265 fps=347 q=-0.0 size=N/A time=00:12:41.80 bitrate=N/A speed=14.5x    frame=18448 fps=347 q=-0.0 size=N/A time=00:12:49.43 bitrate=N/A speed=14.5x    frame=18627 fps=347 q=-0.0 size=N/A time=00:12:56.90 bitrate=N/A speed=14.5x    frame=18818 fps=347 q=-0.0 size=N/A time=00:13:04.86 bitrate=N/A speed=14.5x    frame=19002 fps=347 q=-0.0 size=N/A time=00:13:12.54 bitrate=N/A speed=14.5x    frame=19198 fps=347 q=-0.0 size=N/A time=00:13:20.71 bitrate=N/A speed=14.5x    frame=19379 fps=347 q=-0.0 size=N/A time=00:13:28.26 bitrate=N/A speed=14.5x    frame=19553 fps=347 q=-0.0 size=N/A time=00:13:35.52 bitrate=N/A speed=14.5x    frame=19734 fps=347 q=-0.0 size=N/A time=00:13:43.07 bitrate=N/A speed=14.5x    frame=19911 fps=347 q=-0.0 size=N/A time=00:13:50.45 bitrate=N/A speed=14.5x    frame=20103 fps=347 q=-0.0 size=N/A time=00:13:58.46 bitrate=N/A speed=14.5x    frame=20281 fps=347 q=-0.0 size=N/A time=00:14:05.88 bitrate=N/A speed=14.5x    frame=20454 fps=347 q=-0.0 size=N/A time=00:14:13.10 bitrate=N/A speed=14.5x    frame=20633 fps=347 q=-0.0 size=N/A time=00:14:20.56 bitrate=N/A speed=14.5x    frame=20811 fps=347 q=-0.0 size=N/A time=00:14:27.99 bitrate=N/A speed=14.5x    frame=20986 fps=347 q=-0.0 size=N/A time=00:14:35.29 bitrate=N/A speed=14.5x    frame=21179 fps=347 q=-0.0 size=N/A time=00:14:43.34 bitrate=N/A speed=14.5x    frame=21359 fps=348 q=-0.0 size=N/A time=00:14:50.84 bitrate=N/A speed=14.5x    frame=21533 fps=347 q=-0.0 size=N/A time=00:14:58.10 bitrate=N/A speed=14.5x    frame=21689 fps=347 q=-0.0 size=N/A time=00:15:04.61 bitrate=N/A speed=14.5x    frame=21862 fps=347 q=-0.0 size=N/A time=00:15:11.82 bitrate=N/A speed=14.5x    frame=22042 fps=347 q=-0.0 size=N/A time=00:15:19.33 bitrate=N/A speed=14.5x    frame=22224 fps=347 q=-0.0 size=N/A time=00:15:26.92 bitrate=N/A speed=14.5x    frame=22398 fps=347 q=-0.0 size=N/A time=00:15:34.18 bitrate=N/A speed=14.5x    frame=22557 fps=347 q=-0.0 size=N/A time=00:15:40.81 bitrate=N/A speed=14.5x    frame=22733 fps=347 q=-0.0 size=N/A time=00:15:48.15 bitrate=N/A speed=14.5x    frame=22907 fps=347 q=-0.0 size=N/A time=00:15:55.41 bitrate=N/A speed=14.5x    frame=23091 fps=347 q=-0.0 size=N/A time=00:16:03.08 bitrate=N/A speed=14.5x    frame=23274 fps=347 q=-0.0 size=N/A time=00:16:10.71 bitrate=N/A speed=14.5x    frame=23457 fps=347 q=-0.0 size=N/A time=00:16:18.35 bitrate=N/A speed=14.5x    frame=23641 fps=347 q=-0.0 size=N/A time=00:16:26.02 bitrate=N/A speed=14.5x    frame=23819 fps=347 q=-0.0 size=N/A time=00:16:33.45 bitrate=N/A speed=14.5x    frame=24011 fps=347 q=-0.0 size=N/A time=00:16:41.45 bitrate=N/A speed=14.5x    frame=24193 fps=347 q=-0.0 size=N/A time=00:16:49.04 bitrate=N/A speed=14.5x    frame=24372 fps=347 q=-0.0 size=N/A time=00:16:56.51 bitrate=N/A speed=14.5x    frame=24567 fps=347 q=-0.0 size=N/A time=00:17:04.64 bitrate=N/A speed=14.5x    frame=24746 fps=347 q=-0.0 size=N/A time=00:17:12.11 bitrate=N/A speed=14.5x    frame=24932 fps=347 q=-0.0 size=N/A time=00:17:19.87 bitrate=N/A speed=14.5x    frame=25116 fps=347 q=-0.0 size=N/A time=00:17:27.54 bitrate=N/A speed=14.5x    frame=25295 fps=347 q=-0.0 size=N/A time=00:17:35.01 bitrate=N/A speed=14.5x    frame=25470 fps=347 q=-0.0 size=N/A time=00:17:42.31 bitrate=N/A speed=14.5x    frame=25653 fps=347 q=-0.0 size=N/A time=00:17:49.94 bitrate=N/A speed=14.5x    frame=25824 fps=347 q=-0.0 size=N/A time=00:17:57.07 bitrate=N/A speed=14.5x    frame=26014 fps=347 q=-0.0 size=N/A time=00:18:05.00 bitrate=N/A speed=14.5x    frame=26201 fps=348 q=-0.0 size=N/A time=00:18:12.80 bitrate=N/A speed=14.5x    frame=26392 fps=348 q=-0.0 size=N/A time=00:18:20.76 bitrate=N/A speed=14.5x    frame=26569 fps=348 q=-0.0 size=N/A time=00:18:28.14 bitrate=N/A speed=14.5x    frame=26742 fps=348 q=-0.0 size=N/A time=00:18:35.36 bitrate=N/A speed=14.5x    frame=26926 fps=348 q=-0.0 size=N/A time=00:18:43.03 bitrate=N/A speed=14.5x    frame=27099 fps=348 q=-0.0 size=N/A time=00:18:50.25 bitrate=N/A speed=14.5x    frame=27282 fps=348 q=-0.0 size=N/A time=00:18:57.88 bitrate=N/A speed=14.5x    frame=27469 fps=348 q=-0.0 size=N/A time=00:19:05.68 bitrate=N/A speed=14.5x    frame=27648 fps=348 q=-0.0 size=N/A time=00:19:13.15 bitrate=N/A speed=14.5x    frame=27837 fps=348 q=-0.0 size=N/A time=00:19:21.03 bitrate=N/A speed=14.5x    frame=28024 fps=348 q=-0.0 size=N/A time=00:19:28.83 bitrate=N/A speed=14.5x    frame=28205 fps=348 q=-0.0 size=N/A time=00:19:36.38 bitrate=N/A speed=14.5x    frame=28385 fps=348 q=-0.0 size=N/A time=00:19:43.89 bitrate=N/A speed=14.5x    frame=28564 fps=348 q=-0.0 size=N/A time=00:19:51.35 bitrate=N/A speed=14.5x    frame=28746 fps=348 q=-0.0 size=N/A time=00:19:58.94 bitrate=N/A speed=14.5x    frame=28912 fps=348 q=-0.0 size=N/A time=00:20:05.87 bitrate=N/A speed=14.5x    frame=29087 fps=348 q=-0.0 size=N/A time=00:20:13.17 bitrate=N/A speed=14.5x    frame=29265 fps=348 q=-0.0 size=N/A time=00:20:20.59 bitrate=N/A speed=14.5x    frame=29451 fps=348 q=-0.0 size=N/A time=00:20:28.35 bitrate=N/A speed=14.5x    frame=29624 fps=348 q=-0.0 size=N/A time=00:20:35.56 bitrate=N/A speed=14.5x    frame=29801 fps=348 q=-0.0 size=N/A time=00:20:42.95 bitrate=N/A speed=14.5x    frame=29983 fps=348 q=-0.0 size=N/A time=00:20:50.54 bitrate=N/A speed=14.5x    frame=30158 fps=348 q=-0.0 size=N/A time=00:20:57.83 bitrate=N/A speed=14.5x    frame=30342 fps=348 q=-0.0 size=N/A time=00:21:05.51 bitrate=N/A speed=14.5x    frame=30534 fps=348 q=-0.0 size=N/A time=00:21:13.52 bitrate=N/A speed=14.5x    frame=30715 fps=348 q=-0.0 size=N/A time=00:21:21.07 bitrate=N/A speed=14.5x    frame=30905 fps=348 q=-0.0 size=N/A time=00:21:28.99 bitrate=N/A speed=14.5x    frame=31090 fps=348 q=-0.0 size=N/A time=00:21:36.71 bitrate=N/A speed=14.5x    frame=31274 fps=348 q=-0.0 size=N/A time=00:21:44.38 bitrate=N/A speed=14.5x    frame=31462 fps=348 q=-0.0 size=N/A time=00:21:52.22 bitrate=N/A speed=14.5x    frame=31648 fps=348 q=-0.0 size=N/A time=00:21:59.98 bitrate=N/A speed=14.5x    frame=31817 fps=348 q=-0.0 size=N/A time=00:22:07.03 bitrate=N/A speed=14.5x    frame=31986 fps=348 q=-0.0 size=N/A time=00:22:14.08 bitrate=N/A speed=14.5x    frame=32173 fps=348 q=-0.0 size=N/A time=00:22:21.88 bitrate=N/A speed=14.5x    frame=32343 fps=348 q=-0.0 size=N/A time=00:22:28.97 bitrate=N/A speed=14.5x    frame=32523 fps=348 q=-0.0 size=N/A time=00:22:36.48 bitrate=N/A speed=14.5x    frame=32683 fps=348 q=-0.0 size=N/A time=00:22:43.15 bitrate=N/A speed=14.5x    frame=32846 fps=348 q=-0.0 size=N/A time=00:22:49.95 bitrate=N/A speed=14.5x    frame=33025 fps=348 q=-0.0 size=N/A time=00:22:57.41 bitrate=N/A speed=14.5x    frame=33195 fps=347 q=-0.0 size=N/A time=00:23:04.50 bitrate=N/A speed=14.5x    frame=33378 fps=347 q=-0.0 size=N/A time=00:23:12.14 bitrate=N/A speed=14.5x    frame=33543 fps=347 q=-0.0 size=N/A time=00:23:19.02 bitrate=N/A speed=14.5x    frame=33694 fps=347 q=-0.0 size=N/A time=00:23:25.32 bitrate=N/A speed=14.5x    frame=33826 fps=347 q=-0.0 size=N/A time=00:23:30.82 bitrate=N/A speed=14.5x    frame=33976 fps=346 q=-0.0 size=N/A time=00:23:37.08 bitrate=N/A speed=14.4x    frame=34143 fps=346 q=-0.0 size=N/A time=00:23:44.04 bitrate=N/A speed=14.4x    frame=34301 fps=346 q=-0.0 size=N/A time=00:23:50.63 bitrate=N/A speed=14.4x    frame=34435 fps=345 q=-0.0 size=N/A time=00:23:56.22 bitrate=N/A speed=14.4x    frame=34610 fps=345 q=-0.0 size=N/A time=00:24:03.52 bitrate=N/A speed=14.4x    [Parsed_ssim_16 @ 000001cb64bb59c0] SSIM Y:0.993765 (22.051291) U:0.993992 (22.212760) V:0.993598 (21.936767) All:0.993775 (22.058373)
[out#0/null @ 000001cb576a8a00] video:14903KiB audio:271276KiB subtitle:0KiB other streams:0KiB global headers:0KiB muxing overhead: unknown
frame=34683 fps=345 q=-0.0 Lsize=N/A time=00:24:06.57 bitrate=N/A speed=14.4x    
